<?xml version="1.0" encoding="iso-8859-1"?>
<!-- Generator: Adobe Illustrator 19.0.0, SVG Export Plug-In . SVG Version: 6.00 Build 0)  -->
<svg version="1.1" id="Capa_1" xmlns="http://www.w3.org/2000/svg" xmlns:xlink="http://www.w3.org/1999/xlink" x="0px" y="0px"
	 viewBox="0 0 512 512" style="enable-background:new 0 0 512 512;" xml:space="preserve">
<g>
	<g>
		<g>
			<path d="M42.667,128H384c23.531,0,42.667-19.135,42.667-42.667V42.667C426.667,19.135,407.531,0,384,0H42.667
				C19.135,0,0,19.135,0,42.667v42.667C0,108.865,19.135,128,42.667,128z M341.323,42.667c11.76,0,21.333,9.573,21.333,21.333
				s-9.573,21.333-21.333,21.333S319.99,75.76,319.99,64S329.563,42.667,341.323,42.667z M277.323,42.667
				c11.76,0,21.333,9.573,21.333,21.333s-9.573,21.333-21.333,21.333c-11.76,0-21.333-9.573-21.333-21.333
				S265.563,42.667,277.323,42.667z M149.323,42.667c0-5.896,4.771-10.667,10.667-10.667c5.896,0,10.667,4.771,10.667,10.667v42.667
				c0,5.896-4.771,10.667-10.667,10.667c-5.896,0-10.667-4.771-10.667-10.667V42.667z M106.656,42.667
				c0-5.896,4.771-10.667,10.667-10.667c5.896,0,10.667,4.771,10.667,10.667v42.667c0,5.896-4.771,10.667-10.667,10.667
				c-5.896,0-10.667-4.771-10.667-10.667V42.667z M63.99,42.667C63.99,36.771,68.76,32,74.656,32s10.667,4.771,10.667,10.667v42.667
				C85.323,91.229,80.552,96,74.656,96S63.99,91.229,63.99,85.333V42.667z"/>
			<path d="M469.333,426.667c-12.806,0-24.176,5.784-32.003,14.743l-54.303-27.152c0.617-2.883,0.973-5.859,0.973-8.924
				c0-3.061-0.354-6.036-0.97-8.917l54.302-27.16c7.827,8.958,19.195,14.743,32.001,14.743C492.865,384,512,364.865,512,341.333
				c0-23.531-19.135-42.667-42.667-42.667s-42.667,19.135-42.667,42.667c0,3.061,0.354,6.036,0.97,8.917l-54.302,27.16
				c-7.827-8.958-19.195-14.743-32.001-14.743c-23.531,0-42.667,19.135-42.667,42.667S317.802,448,341.333,448
				c12.803,0,24.171-5.781,31.996-14.737l54.307,27.154c-0.616,2.88-0.97,5.855-0.97,8.917c0,23.531,19.135,42.667,42.667,42.667
				S512,492.865,512,469.333S492.865,426.667,469.333,426.667z"/>
			<path d="M320.271,339.177C321.385,328.24,330.438,320,341.333,320c10.948,0,20,8.281,21.073,19.271
				c0.354,3.708,2.625,6.958,5.979,8.573c0.073,0.042,3.135,1.479,3.219,1.51c3.052,1.635,6.719,1.688,9.833,0.156l19.104-9.552
				c3.115-1.563,5.271-4.531,5.781-7.979c1.375-9.25,4.979-18.219,10.74-26.635c2.708-3.979,2.427-9.292-0.708-12.948
				c-8.177-9.573-19.969-15.063-32.344-15.063H42.677C19.146,277.333,0.01,296.469,0.01,320v42.667
				c0,23.531,19.135,42.667,42.667,42.667H267.75c5.302,0,9.802-3.896,10.552-9.135c3.052-21.063,16.49-39.188,35.948-48.479
				C317.615,346.115,319.885,342.875,320.271,339.177z M85.333,362.667c0,5.896-4.771,10.667-10.667,10.667
				c-5.896,0-10.667-4.771-10.667-10.667V320c0-5.896,4.771-10.667,10.667-10.667c5.896,0,10.667,4.771,10.667,10.667V362.667z
				 M128,362.667c0,5.896-4.771,10.667-10.667,10.667c-5.896,0-10.667-4.771-10.667-10.667V320c0-5.896,4.771-10.667,10.667-10.667
				c5.896,0,10.667,4.771,10.667,10.667V362.667z M170.667,362.667c0,5.896-4.771,10.667-10.667,10.667s-10.667-4.771-10.667-10.667
				V320c0-5.896,4.771-10.667,10.667-10.667s10.667,4.771,10.667,10.667V362.667z M277.333,362.667
				c-11.76,0-21.333-9.573-21.333-21.333c0-11.76,9.573-21.333,21.333-21.333c11.76,0,21.333,9.573,21.333,21.333
				C298.667,353.094,289.094,362.667,277.333,362.667z"/>
			<path d="M42.667,266.667H384c23.531,0,42.667-19.135,42.667-42.667v-42.667c0-23.531-19.135-42.667-42.667-42.667H42.667
				C19.135,138.667,0,157.802,0,181.333V224C0,247.531,19.135,266.667,42.667,266.667z M341.323,181.333
				c11.76,0,21.333,9.573,21.333,21.333c0,11.76-9.573,21.333-21.333,21.333s-21.333-9.573-21.333-21.333
				C319.99,190.906,329.563,181.333,341.323,181.333z M277.323,181.333c11.76,0,21.333,9.573,21.333,21.333
				c0,11.76-9.573,21.333-21.333,21.333c-11.76,0-21.333-9.573-21.333-21.333C255.99,190.906,265.563,181.333,277.323,181.333z
				 M149.323,181.333c0-5.896,4.771-10.667,10.667-10.667c5.896,0,10.667,4.771,10.667,10.667V224
				c0,5.896-4.771,10.667-10.667,10.667c-5.896,0-10.667-4.771-10.667-10.667V181.333z M106.656,181.333
				c0-5.896,4.771-10.667,10.667-10.667c5.896,0,10.667,4.771,10.667,10.667V224c0,5.896-4.771,10.667-10.667,10.667
				c-5.896,0-10.667-4.771-10.667-10.667V181.333z M63.99,181.333c0-5.896,4.771-10.667,10.667-10.667s10.667,4.771,10.667,10.667
				V224c0,5.896-4.771,10.667-10.667,10.667S63.99,229.896,63.99,224V181.333z"/>
		</g>
	</g>
</g>
<g>
</g>
<g>
</g>
<g>
</g>
<g>
</g>
<g>
</g>
<g>
</g>
<g>
</g>
<g>
</g>
<g>
</g>
<g>
</g>
<g>
</g>
<g>
</g>
<g>
</g>
<g>
</g>
<g>
</g>
</svg>
