<?xml version="1.0" encoding="iso-8859-1"?>
<!-- Generator: Adobe Illustrator 19.0.0, SVG Export Plug-In . SVG Version: 6.00 Build 0)  -->
<svg version="1.1" id="Capa_1" xmlns="http://www.w3.org/2000/svg" xmlns:xlink="http://www.w3.org/1999/xlink" x="0px" y="0px"
	 viewBox="0 0 512 512" style="enable-background:new 0 0 512 512;" xml:space="preserve">
<g>
	<g>
		<path d="M469.333,234.667H384v-160C384,68.771,379.229,64,373.333,64c-5.896,0-10.667,4.771-10.667,10.667v160H149.333v-160
			c0-5.896-4.771-10.667-10.667-10.667C132.771,64,128,68.771,128,74.667v160H42.667C19.135,234.667,0,253.802,0,277.333v85.333
			c0,23.531,19.135,42.667,42.667,42.667v32c0,5.896,4.771,10.667,10.667,10.667h64c5.896,0,10.667-4.771,10.667-10.667v-32h256v32
			c0,5.896,4.771,10.667,10.667,10.667h64c5.896,0,10.667-4.771,10.667-10.667v-32c23.531,0,42.667-19.135,42.667-42.667v-85.333
			C512,253.802,492.865,234.667,469.333,234.667z M352,362.667c-5.891,0-10.667-4.776-10.667-10.667
			c0-5.892,4.776-10.667,10.667-10.667s10.667,4.775,10.667,10.667C362.667,357.891,357.891,362.667,352,362.667z M394.667,362.667
			c-5.891,0-10.667-4.776-10.667-10.667c0-5.892,4.776-10.667,10.667-10.667s10.667,4.775,10.667,10.667
			C405.333,357.891,400.557,362.667,394.667,362.667z M408.313,298.667H103.688L89.462,256h333.076L408.313,298.667z M448,362.667
			c-11.76,0-21.333-9.573-21.333-21.333c0-11.76,9.573-21.333,21.333-21.333c11.76,0,21.333,9.573,21.333,21.333
			C469.333,353.094,459.76,362.667,448,362.667z"/>
	</g>
</g>
<g>
</g>
<g>
</g>
<g>
</g>
<g>
</g>
<g>
</g>
<g>
</g>
<g>
</g>
<g>
</g>
<g>
</g>
<g>
</g>
<g>
</g>
<g>
</g>
<g>
</g>
<g>
</g>
<g>
</g>
</svg>
