<?xml version="1.0" encoding="iso-8859-1"?>
<!-- Generator: Adobe Illustrator 19.0.0, SVG Export Plug-In . SVG Version: 6.00 Build 0)  -->
<svg version="1.1" id="Capa_1" xmlns="http://www.w3.org/2000/svg" xmlns:xlink="http://www.w3.org/1999/xlink" x="0px" y="0px"
	 viewBox="0 0 512 512" style="enable-background:new 0 0 512 512;" xml:space="preserve">
<g>
	<g>
		<g>
			<path d="M192,277.333c12.803,0,24.171-5.781,31.996-14.737l54.307,27.154c-0.616,2.88-0.97,5.855-0.97,8.917
				c0,23.531,19.135,42.667,42.667,42.667s42.667-19.135,42.667-42.667S343.531,256,320,256c-12.806,0-24.176,5.784-32.003,14.743
				l-54.303-27.152c0.617-2.883,0.973-5.859,0.973-8.924c0-3.061-0.354-6.036-0.97-8.917l54.302-27.16
				c7.827,8.958,19.195,14.743,32.001,14.743c23.531,0,42.667-19.135,42.667-42.667S343.531,128,320,128
				s-42.667,19.135-42.667,42.667c0,3.061,0.354,6.036,0.97,8.917l-54.302,27.16C216.174,197.785,204.806,192,192,192
				c-23.531,0-42.667,19.135-42.667,42.667S168.469,277.333,192,277.333z"/>
			<path d="M245.333,85.333h21.333c5.896,0,10.667-4.771,10.667-10.667c0-5.896-4.771-10.667-10.667-10.667h-21.333
				c-5.896,0-10.667,4.771-10.667,10.667C234.667,80.563,239.438,85.333,245.333,85.333z"/>
			<path d="M384,0H128c-23.531,0-42.667,19.135-42.667,42.667v426.667C85.333,492.865,104.469,512,128,512h256
				c23.531,0,42.667-19.135,42.667-42.667V42.667C426.667,19.135,407.531,0,384,0z M288,469.333h-64
				c-5.896,0-10.667-4.771-10.667-10.667S218.104,448,224,448h64c5.896,0,10.667,4.771,10.667,10.667S293.896,469.333,288,469.333z
				 M384,405.333H128V42.667h256V405.333z"/>
			<circle cx="352" cy="74.667" r="10.667"/>
		</g>
	</g>
</g>
<g>
</g>
<g>
</g>
<g>
</g>
<g>
</g>
<g>
</g>
<g>
</g>
<g>
</g>
<g>
</g>
<g>
</g>
<g>
</g>
<g>
</g>
<g>
</g>
<g>
</g>
<g>
</g>
<g>
</g>
</svg>
