<?xml version="1.0" encoding="iso-8859-1"?>
<!-- Generator: Adobe Illustrator 19.0.0, SVG Export Plug-In . SVG Version: 6.00 Build 0)  -->
<svg version="1.1" id="Capa_1" xmlns="http://www.w3.org/2000/svg" xmlns:xlink="http://www.w3.org/1999/xlink" x="0px" y="0px"
	 viewBox="0 0 512 512" style="enable-background:new 0 0 512 512;" xml:space="preserve">
<g>
	<g>
		<path d="M416,234.667c-5.875,0-10.667-4.781-10.667-10.667s4.792-10.667,10.667-10.667c3.813,0,7.604,0.208,11.313,0.573
			c3.792,0.292,7.167-1.167,9.417-4.01c2.25-2.854,2.896-6.656,1.708-10.083c-23.646-68.479-88.375-114.479-161.104-114.479
			c-55.188,0-107.125,26.896-138.938,71.937c-2.083,2.938-2.542,6.729-1.208,10.073c1.313,3.344,4.229,5.802,7.75,6.531
			c20.5,4.229,39.688,12.688,55.5,24.448c4.708,3.51,5.688,10.208,2.188,14.927c-3.5,4.708-10.188,5.698-14.938,2.198
			c-17.292-12.854-38.146-20.688-60.271-22.635l-2.625-0.281c-2.479-0.271-4.938-0.531-7.458-0.531C52.646,192,0,244.635,0,309.333
			s52.646,117.333,117.333,117.333H416c52.938,0,96-43.063,96-96S468.938,234.667,416,234.667z M234.417,285.812
			c0,0.167,0.146,1.469,0.229,2.156h-0.021c-0.042,0.333-0.208,1.896-0.208,2.229c-0.208,4.219,2.104,8.146,5.875,10.031
			l41.021,20.5c3.813,1.865,8.354,1.375,11.604-1.344c7.896-6.573,17.271-10.052,27.083-10.052
			c23.521,0,42.667,19.135,42.667,42.667S343.521,394.667,320,394.667c-23.521,0-42.667-19.135-42.625-42.635
			c0.042-0.333,0.208-1.875,0.208-2.219c0.208-4.208-2.104-8.146-5.875-10.031l-41.021-20.5c-1.521-0.75-3.146-1.125-4.771-1.125
			c-2.438,0-4.854,0.833-6.813,2.458c-7.917,6.573-17.292,10.052-27.104,10.052c-23.521,0-42.667-19.135-42.667-42.667
			s19.146-42.667,42.667-42.667c9.813,0,19.188,3.479,27.083,10.052c3.25,2.688,7.792,3.219,11.604,1.344l41.021-20.51
			c3.771-1.885,6.083-5.823,5.875-10.031c-0.021-0.75-0.104-1.49-0.25-2.188c0-23.531,19.146-42.667,42.667-42.667
			c23.521,0,42.667,19.135,42.667,42.667S343.521,266.667,320,266.667c-9.813,0-19.188-3.479-27.083-10.052
			c-3.271-2.708-7.813-3.219-11.604-1.344l-41.021,20.51C236.521,277.667,234.208,281.604,234.417,285.812z"/>
	</g>
</g>
<g>
</g>
<g>
</g>
<g>
</g>
<g>
</g>
<g>
</g>
<g>
</g>
<g>
</g>
<g>
</g>
<g>
</g>
<g>
</g>
<g>
</g>
<g>
</g>
<g>
</g>
<g>
</g>
<g>
</g>
</svg>
