<?xml version="1.0" encoding="iso-8859-1"?>
<!-- Generator: Adobe Illustrator 19.0.0, SVG Export Plug-In . SVG Version: 6.00 Build 0)  -->
<svg version="1.1" id="Capa_1" xmlns="http://www.w3.org/2000/svg" xmlns:xlink="http://www.w3.org/1999/xlink" x="0px" y="0px"
	 viewBox="0 0 512 512" style="enable-background:new 0 0 512 512;" xml:space="preserve">
<g>
	<g>
		<path d="M444.862,109.779L338.221,3.138C336.29,1.201,333.621,0,330.667,0h-224C83.146,0,64,19.135,64,42.667v426.667
			C64,492.865,83.146,512,106.667,512h298.667C428.854,512,448,492.865,448,469.333v-352
			C448,114.379,446.799,111.71,444.862,109.779z M234.417,296.479c0,0.167,0.146,1.469,0.229,2.156h-0.021
			c-0.042,0.333-0.208,1.896-0.208,2.229c-0.208,4.219,2.104,8.146,5.875,10.031l41.021,20.5c3.792,1.865,8.333,1.365,11.604-1.344
			C300.813,323.479,310.188,320,320,320c23.521,0,42.667,19.135,42.667,42.667S343.521,405.333,320,405.333
			c-23.521,0-42.667-19.135-42.625-42.635c0.042-0.333,0.208-1.875,0.208-2.219c0.208-4.208-2.104-8.146-5.875-10.031l-41.021-20.5
			c-1.521-0.75-3.146-1.125-4.771-1.125c-2.438,0-4.854,0.833-6.813,2.458c-7.917,6.573-17.292,10.052-27.104,10.052
			c-23.521,0-42.667-19.135-42.667-42.667S168.479,256,192,256c9.813,0,19.188,3.479,27.083,10.052
			c3.25,2.708,7.771,3.208,11.604,1.344l41.021-20.51c3.771-1.885,6.083-5.823,5.875-10.031c-0.021-0.75-0.104-1.49-0.25-2.188
			C277.333,211.135,296.479,192,320,192c23.521,0,42.667,19.135,42.667,42.667S343.521,277.333,320,277.333
			c-9.813,0-19.188-3.479-27.083-10.052c-3.271-2.719-7.833-3.229-11.604-1.344l-41.021,20.51
			C236.521,288.333,234.208,292.271,234.417,296.479z M362.667,106.667c-11.771,0-21.333-9.573-21.333-21.333V36.417l70.25,70.25
			H362.667z"/>
	</g>
</g>
<g>
</g>
<g>
</g>
<g>
</g>
<g>
</g>
<g>
</g>
<g>
</g>
<g>
</g>
<g>
</g>
<g>
</g>
<g>
</g>
<g>
</g>
<g>
</g>
<g>
</g>
<g>
</g>
<g>
</g>
</svg>
