<?xml version="1.0" encoding="iso-8859-1"?>
<!-- Generator: Adobe Illustrator 19.0.0, SVG Export Plug-In . SVG Version: 6.00 Build 0)  -->
<svg version="1.1" id="Capa_1" xmlns="http://www.w3.org/2000/svg" xmlns:xlink="http://www.w3.org/1999/xlink" x="0px" y="0px"
	 viewBox="0 0 512 512" style="enable-background:new 0 0 512 512;" xml:space="preserve">
<g>
	<g>
		<g>
			<path d="M128,85.333h256c11.783,0,21.333-9.552,21.333-21.333V21.333C405.333,9.551,395.783,0,384,0H128
				c-11.783,0-21.333,9.551-21.333,21.333V64C106.667,75.781,116.217,85.333,128,85.333z M352,32
				c5.891,0,10.667,4.775,10.667,10.667c0,5.891-4.776,10.667-10.667,10.667s-10.667-4.776-10.667-10.667
				C341.333,36.775,346.109,32,352,32z M309.333,32C315.224,32,320,36.775,320,42.667c0,5.891-4.776,10.667-10.667,10.667
				s-10.667-4.776-10.667-10.667C298.667,36.775,303.443,32,309.333,32z M192,32c0-5.896,4.771-10.667,10.667-10.667
				c5.896,0,10.667,4.771,10.667,10.667v21.333c0,5.896-4.771,10.667-10.667,10.667C196.771,64,192,59.229,192,53.333V32z
				 M149.333,32c0-5.896,4.771-10.667,10.667-10.667S170.667,26.104,170.667,32v21.333C170.667,59.229,165.896,64,160,64
				s-10.667-4.771-10.667-10.667V32z"/>
			<path d="M490.667,320h-64v-53.333c0-5.896-4.771-10.667-10.667-10.667H288v-10.667c0-5.896-4.771-10.667-10.667-10.667h-10.667
				V192H384c11.783,0,21.333-9.552,21.333-21.333V128c0-11.783-9.551-21.333-21.333-21.333H128
				c-11.783,0-21.333,9.551-21.333,21.333v42.667c0,11.781,9.551,21.333,21.333,21.333h117.333v42.667h-10.667
				c-5.896,0-10.667,4.771-10.667,10.667V256H96c-5.896,0-10.667,4.771-10.667,10.667V320h-64C9.573,320,0,329.573,0,341.333V448
				c0,11.76,9.573,21.333,21.333,21.333h64v21.333H64c-5.896,0-10.667,4.771-10.667,10.667C53.333,507.229,58.104,512,64,512h64
				c5.896,0,10.667-4.771,10.667-10.667c0-5.896-4.771-10.667-10.667-10.667h-21.333v-21.333h64c11.76,0,21.333-9.573,21.333-21.333
				V341.333c0-11.76-9.573-21.333-21.333-21.333h-64v-42.667H224V288c0,5.896,4.771,10.667,10.667,10.667h42.667
				c5.896,0,10.667-4.771,10.667-10.667v-10.667h117.333V320h-64c-11.76,0-21.333,9.573-21.333,21.333V448
				c0,11.76,9.573,21.333,21.333,21.333h64v21.333H384c-5.896,0-10.667,4.771-10.667,10.667c0,5.896,4.771,10.667,10.667,10.667h64
				c5.896,0,10.667-4.771,10.667-10.667c0-5.896-4.771-10.667-10.667-10.667h-21.333v-21.333h64c11.76,0,21.333-9.573,21.333-21.333
				V341.333C512,329.573,502.427,320,490.667,320z M352,138.667c5.891,0,10.667,4.775,10.667,10.667
				c0,5.891-4.776,10.667-10.667,10.667s-10.667-4.776-10.667-10.667C341.333,143.441,346.109,138.667,352,138.667z
				 M309.333,138.667c5.891,0,10.667,4.775,10.667,10.667c0,5.891-4.776,10.667-10.667,10.667s-10.667-4.776-10.667-10.667
				C298.667,143.441,303.443,138.667,309.333,138.667z M170.667,160c0,5.896-4.771,10.667-10.667,10.667
				s-10.667-4.771-10.667-10.667v-21.333c0-5.896,4.771-10.667,10.667-10.667s10.667,4.771,10.667,10.667V160z M213.333,160
				c0,5.896-4.771,10.667-10.667,10.667c-5.896,0-10.667-4.771-10.667-10.667v-21.333c0-5.896,4.771-10.667,10.667-10.667
				c5.896,0,10.667,4.771,10.667,10.667V160z M170.667,341.333v85.333H21.333v-85.333H170.667z M490.667,426.667H341.333v-85.333
				h149.333V426.667z"/>
		</g>
	</g>
</g>
<g>
</g>
<g>
</g>
<g>
</g>
<g>
</g>
<g>
</g>
<g>
</g>
<g>
</g>
<g>
</g>
<g>
</g>
<g>
</g>
<g>
</g>
<g>
</g>
<g>
</g>
<g>
</g>
<g>
</g>
</svg>
