<?xml version="1.0" encoding="iso-8859-1"?>
<!-- Generator: Adobe Illustrator 19.0.0, SVG Export Plug-In . SVG Version: 6.00 Build 0)  -->
<svg version="1.1" id="Capa_1" xmlns="http://www.w3.org/2000/svg" xmlns:xlink="http://www.w3.org/1999/xlink" x="0px" y="0px"
	 viewBox="0 0 469.333 469.333" style="enable-background:new 0 0 469.333 469.333;" xml:space="preserve">
<g>
	<g>
		<g>
			<path d="M466.208,131.125l-128-128c-4.167-4.167-10.917-4.167-15.083,0l-65.833,65.833c-4.167,4.167-4.167,10.917,0,15.083
				l128,128c2.083,2.083,4.813,3.125,7.542,3.125s5.458-1.042,7.542-3.125l65.833-65.833
				C470.375,142.042,470.375,135.292,466.208,131.125z M319.979,117.396c-2.729,0-5.458-1.042-7.542-3.125l-10.667-10.667
				c-4.104-4.104-4.167-10.74-0.146-14.927c36.146-37.656,36.188-37.563,43.646-34.542c1.333,0.531,2.563,1.365,3.583,2.385
				l10.667,10.667c4.167,4.167,4.167,10.917,0,15.083l-32,32C325.438,116.354,322.708,117.396,319.979,117.396z M412.875,135.625
				l-32,32c-2.083,2.083-4.813,3.125-7.542,3.125s-5.458-1.042-7.542-3.125l-10.667-10.667c-4.104-4.104-4.167-10.74-0.146-14.927
				c36.125-37.656,36.188-37.563,43.646-34.542c1.333,0.531,2.563,1.365,3.583,2.385l10.667,10.667
				C417.042,124.708,417.042,131.458,412.875,135.625z"/>
			<path d="M231.542,88.458c-4.167-4.167-10.917-4.167-15.083,0L33.292,271.625C11.833,293.094,0,321.635,0,352v3.656
				c0,62.677,51,113.677,113.667,113.677h3.667c29.917,0,59.229-12.135,80.375-33.292l183.167-183.167
				c4.167-4.167,4.167-10.917,0-15.083L231.542,88.458z M121.75,377.771c-4.167,4.156-9.625,6.24-15.083,6.24
				s-10.917-2.083-15.083-6.24c-8.313-8.313-8.313-21.854,0-30.167c8.333-8.313,21.833-8.313,30.167,0
				C130.062,355.917,130.062,369.458,121.75,377.771z M160,362.688c-5.896,0-10.667-4.771-10.667-10.667c0-17.646-14.354-32-32-32
				c-5.896,0-10.667-4.771-10.667-10.667s4.771-10.667,10.667-10.667c29.417,0,53.333,23.927,53.333,53.333
				C170.667,357.917,165.896,362.688,160,362.688z M202.667,362.688c-5.896,0-10.667-4.771-10.667-10.667
				c0-41.167-33.5-74.667-74.667-74.667c-5.896,0-10.667-4.771-10.667-10.667c0-5.896,4.771-10.667,10.667-10.667
				c52.938,0,96,43.063,96,96C213.333,357.917,208.562,362.688,202.667,362.688z"/>
		</g>
	</g>
</g>
<g>
</g>
<g>
</g>
<g>
</g>
<g>
</g>
<g>
</g>
<g>
</g>
<g>
</g>
<g>
</g>
<g>
</g>
<g>
</g>
<g>
</g>
<g>
</g>
<g>
</g>
<g>
</g>
<g>
</g>
</svg>
