<?xml version="1.0" encoding="iso-8859-1"?>
<!-- Generator: Adobe Illustrator 19.0.0, SVG Export Plug-In . SVG Version: 6.00 Build 0)  -->
<svg version="1.1" id="Capa_1" xmlns="http://www.w3.org/2000/svg" xmlns:xlink="http://www.w3.org/1999/xlink" x="0px" y="0px"
	 viewBox="0 0 512 512" style="enable-background:new 0 0 512 512;" xml:space="preserve">
<g>
	<g>
		<g>
			<path d="M469.333,426.667c-12.799,0-24.169,5.784-31.997,14.742l-54.31-27.147c0.617-2.884,0.974-5.862,0.974-8.928
				c0-3.063-0.355-6.039-0.971-8.921l54.309-27.154c7.828,8.957,19.197,14.741,31.996,14.741C492.854,384,512,364.865,512,341.333
				c0-23.531-19.146-42.667-42.667-42.667c-23.521,0-42.667,19.135-42.667,42.667c0,3.063,0.355,6.039,0.971,8.921l-54.309,27.154
				c-7.828-8.957-19.197-14.741-31.996-14.741c-23.521,0-42.667,19.135-42.667,42.667S317.813,448,341.333,448
				c12.797,0,24.163-5.78,31.991-14.734l54.314,27.148c-0.616,2.882-0.971,5.857-0.971,8.919c0,23.531,19.146,42.667,42.667,42.667
				C492.854,512,512,492.865,512,469.333S492.854,426.667,469.333,426.667z"/>
			<circle cx="234.667" cy="128" r="128"/>
			<path d="M277.333,405.333c0-35.292,28.708-64,64-64c10.271,0,20.438,2.698,30.25,8.01c3.083,1.656,6.75,1.729,9.854,0.156
				l19.104-9.552c3.104-1.552,5.396-5,5.917-8.427c0.083-0.281,0.5-1.979,0.563-2.26c0.917-4.802-1.521-9.615-5.958-11.688
				c-39.167-18.354-99.771-40.24-166.396-40.24c-73.104,0-139.417,26.156-182.167,48.104C20.125,342.063,0,374.875,0,411.052v15.615
				c0,23.531,19.146,42.667,42.667,42.667H289.25c4.333,0,8.25-2.625,9.875-6.646c1.646-4.021,0.688-8.625-2.417-11.656
				C284.208,438.844,277.333,422.615,277.333,405.333z"/>
		</g>
	</g>
</g>
<g>
</g>
<g>
</g>
<g>
</g>
<g>
</g>
<g>
</g>
<g>
</g>
<g>
</g>
<g>
</g>
<g>
</g>
<g>
</g>
<g>
</g>
<g>
</g>
<g>
</g>
<g>
</g>
<g>
</g>
</svg>
