<?xml version="1.0" encoding="iso-8859-1"?>
<!-- Generator: Adobe Illustrator 19.0.0, SVG Export Plug-In . SVG Version: 6.00 Build 0)  -->
<svg version="1.1" id="Capa_1" xmlns="http://www.w3.org/2000/svg" xmlns:xlink="http://www.w3.org/1999/xlink" x="0px" y="0px"
	 viewBox="0 0 512 512" style="enable-background:new 0 0 512 512;" xml:space="preserve">
<g>
	<g>
		<g>
			<path d="M192,277.333c12.803,0,24.171-5.781,31.996-14.737l54.307,27.154c-0.616,2.88-0.97,5.855-0.97,8.917
				c0,23.531,19.135,42.667,42.667,42.667s42.667-19.135,42.667-42.667S343.531,256,320,256c-12.806,0-24.176,5.784-32.003,14.743
				l-54.303-27.152c0.617-2.883,0.973-5.859,0.973-8.924c0-3.061-0.354-6.036-0.97-8.917l54.302-27.16
				c7.827,8.958,19.195,14.743,32.001,14.743c23.531,0,42.667-19.135,42.667-42.667S343.531,128,320,128
				s-42.667,19.135-42.667,42.667c0,3.061,0.354,6.036,0.97,8.917l-54.302,27.16C216.174,197.785,204.806,192,192,192
				c-23.531,0-42.667,19.135-42.667,42.667S168.469,277.333,192,277.333z"/>
			<circle cx="373.333" cy="74.667" r="10.667"/>
			<path d="M405.333,0H106.667C83.135,0,64,19.135,64,42.667v426.667C64,492.865,83.135,512,106.667,512h298.667
				C428.865,512,448,492.865,448,469.333V42.667C448,19.135,428.865,0,405.333,0z M256,469.333c-11.76,0-21.333-9.573-21.333-21.333
				c0-11.76,9.573-21.333,21.333-21.333s21.333,9.573,21.333,21.333C277.333,459.76,267.76,469.333,256,469.333z M405.333,384
				H106.667V42.667h298.667V384z"/>
		</g>
	</g>
</g>
<g>
</g>
<g>
</g>
<g>
</g>
<g>
</g>
<g>
</g>
<g>
</g>
<g>
</g>
<g>
</g>
<g>
</g>
<g>
</g>
<g>
</g>
<g>
</g>
<g>
</g>
<g>
</g>
<g>
</g>
</svg>
