<?xml version="1.0" encoding="iso-8859-1"?>
<!-- Generator: Adobe Illustrator 19.0.0, SVG Export Plug-In . SVG Version: 6.00 Build 0)  -->
<svg version="1.1" id="Capa_1" xmlns="http://www.w3.org/2000/svg" xmlns:xlink="http://www.w3.org/1999/xlink" x="0px" y="0px"
	 viewBox="0 0 469.339 469.339" style="enable-background:new 0 0 469.339 469.339;" xml:space="preserve">
<g>
	<g>
		<g>
			<path d="M426.669,149.339h-128c-5.891,0-10.667,4.776-10.667,10.667v21.333c0,5.891,4.776,10.667,10.667,10.667h128v234.667h-384
				V192.005h128c5.891,0,10.667-4.776,10.667-10.667v-21.333c0-5.891-4.776-10.667-10.667-10.667h-128
				c-23.564,0-42.667,19.103-42.667,42.667v234.667c0,23.564,19.103,42.667,42.667,42.667h384c23.564,0,42.667-19.103,42.667-42.667
				V192.005C469.336,168.441,450.233,149.339,426.669,149.339z"/>
			<path d="M160.003,85.339h32c2.833,0,5.542-1.125,7.542-3.125l13.792-13.792v272.917h42.667V68.422l13.792,13.792
				c2,2,4.708,3.125,7.542,3.125h32c4.458,0,8.458-2.781,10-6.969c1.563-4.188,0.333-8.896-3.063-11.792l-74.667-64
				c-4-3.438-9.875-3.438-13.875,0l-74.667,64c-3.396,2.896-4.625,7.604-3.063,11.792C151.544,82.557,155.544,85.339,160.003,85.339
				z"/>
		</g>
	</g>
</g>
<g>
</g>
<g>
</g>
<g>
</g>
<g>
</g>
<g>
</g>
<g>
</g>
<g>
</g>
<g>
</g>
<g>
</g>
<g>
</g>
<g>
</g>
<g>
</g>
<g>
</g>
<g>
</g>
<g>
</g>
</svg>
