<?xml version="1.0" encoding="iso-8859-1"?>
<!-- Generator: Adobe Illustrator 19.0.0, SVG Export Plug-In . SVG Version: 6.00 Build 0)  -->
<svg version="1.1" id="Capa_1" xmlns="http://www.w3.org/2000/svg" xmlns:xlink="http://www.w3.org/1999/xlink" x="0px" y="0px"
	 viewBox="0 0 512 512" style="enable-background:new 0 0 512 512;" xml:space="preserve">
<g>
	<g>
		<g>
			<path d="M277.333,213.334c12.799,0,24.168-5.784,31.996-14.741l54.309,27.154c-0.616,2.882-0.971,5.858-0.971,8.921
				c0,23.531,19.146,42.667,42.667,42.667c23.521,0,42.667-19.135,42.667-42.667s-19.146-42.667-42.667-42.667
				c-12.799,0-24.168,5.784-31.996,14.741l-54.309-27.154c0.616-2.882,0.971-5.858,0.971-8.921s-0.355-6.039-0.971-8.921
				l54.309-27.154c7.828,8.957,19.197,14.741,31.996,14.741c23.521,0,42.667-19.135,42.667-42.667s-19.146-42.667-42.667-42.667
				c-23.521,0-42.667,19.135-42.667,42.667c0,3.063,0.355,6.039,0.971,8.921l-54.309,27.154
				c-7.828-8.957-19.197-14.741-31.996-14.741c-23.521,0-42.667,19.135-42.667,42.667S253.812,213.334,277.333,213.334z"/>
			<path d="M99.625,230.915L12.75,213.54c-3.104-0.625-6.375,0.188-8.854,2.208C1.437,217.78,0,220.801,0,223.998v170.667
				c0,5.896,4.771,10.667,10.667,10.667H77.5c15.833,0,29.458-11.813,31.688-27.469l15.854-111.042
				C127.437,250.009,116.292,234.238,99.625,230.915z"/>
			<path d="M448,309.332c-13.318,0-35.779,4.747-55.974,9.815c-4.944,1.241-8.145,5.781-8.033,10.878
				c0.004,0.212,0.006,0.426,0.006,0.641c0,16.135-7.104,30.302-19.979,39.917c-12.479,9.313-28.5,13.656-50.417,13.656
				c-28.704,0-67.768-7.434-119.438-22.712c-5.332-1.577-9.1-6.879-8.059-12.341c1.203-6.301,7.56-10.073,13.517-8.29
				c49.292,14.604,87.625,22.01,113.979,22.01c22.438,0,32.25-5.375,37.667-9.427c7.458-5.563,11.396-13.448,11.396-22.813
				c0-1.789-0.326-3.4-0.552-5.068c-4.038-29.449-42.814-39.964-82.656-48.057c-18.5-3.75-32.271-10.385-45.583-16.813
				c-16.417-7.917-31.917-15.396-52.542-15.396c-8.177,0-16.812,0.595-25.678,1.764c-5.598,0.74-9.638,5.759-9.215,11.389
				c0.31,4.134,0.225,7.844-0.294,11.357l-15.854,111.073c-0.146,1-0.438,1.938-0.688,2.885c-0.021,0.094-0.542,2.052-0.563,2.135
				c-1.229,5.01,1.292,10.188,6,12.292c50.75,22.708,118.5,49.771,152.958,49.771c41.375,0,126.563-41.875,182.917-69.583
				c14.547-7.15,26.6-13.083,34.48-16.546c3.818-1.677,6.556-5.313,6.6-9.482C512.271,327.054,485.882,309.332,448,309.332z"/>
		</g>
	</g>
</g>
<g>
</g>
<g>
</g>
<g>
</g>
<g>
</g>
<g>
</g>
<g>
</g>
<g>
</g>
<g>
</g>
<g>
</g>
<g>
</g>
<g>
</g>
<g>
</g>
<g>
</g>
<g>
</g>
<g>
</g>
</svg>
