<?xml version="1.0" encoding="iso-8859-1"?>
<!-- Generator: Adobe Illustrator 19.0.0, SVG Export Plug-In . SVG Version: 6.00 Build 0)  -->
<svg version="1.1" id="Capa_1" xmlns="http://www.w3.org/2000/svg" xmlns:xlink="http://www.w3.org/1999/xlink" x="0px" y="0px"
	 viewBox="0 0 512 512" style="enable-background:new 0 0 512 512;" xml:space="preserve">
<g>
	<g>
		<g>
			<polygon points="256,237.104 315.167,190.615 256,124.052 			"/>
			<polygon points="256,392.49 314.729,341.094 256,286.552 			"/>
			<path d="M321.167,6.395c-41.979-8.407-87.146-8.646-130.313,0c-48.792,9.751-84.188,52.93-84.188,102.673v293.831
				c0,49.743,35.396,92.922,84.167,102.673c21.292,4.261,43.125,6.427,65.479,6.427c21.729,0,43.563-2.167,64.833-6.427
				c48.792-9.751,84.188-52.93,84.188-102.673V109.068C405.333,59.326,369.938,16.146,321.167,6.395z M337.917,333.521
				c2.229,2.052,3.458,4.948,3.417,7.969c-0.042,3.021-1.375,5.885-3.646,7.875l-85.333,74.667
				c-1.979,1.729-4.479,2.635-7.021,2.635c-1.5,0-3-0.313-4.417-0.958c-3.813-1.729-6.25-5.521-6.25-9.708V280.99l-46.75,36.729
				c-4.583,3.635-11.333,2.854-14.979-1.792c-3.625-4.635-2.833-11.344,1.813-14.979l52.396-41.177l-53.063-49.292
				c-4.333-4-4.583-10.75-0.563-15.073c4.021-4.313,10.792-4.542,15.063-0.552l46.083,42.781V96c0-4.427,2.729-8.396,6.875-9.969
				c4.146-1.563,8.833-0.427,11.771,2.885l85.333,96c1.938,2.198,2.917,5.104,2.646,8.031c-0.271,2.927-1.729,5.625-4.042,7.438
				l-77.292,60.74L337.917,333.521z"/>
		</g>
	</g>
</g>
<g>
</g>
<g>
</g>
<g>
</g>
<g>
</g>
<g>
</g>
<g>
</g>
<g>
</g>
<g>
</g>
<g>
</g>
<g>
</g>
<g>
</g>
<g>
</g>
<g>
</g>
<g>
</g>
<g>
</g>
</svg>
