<svg xmlns="http://www.w3.org/2000/svg" width="58" height="57" viewBox="0 0 58 57">
  <g id="Groupe_857" data-name="Groupe 857" transform="translate(0 57)">
    <path id="Tracé_492" data-name="Tracé 492" d="M47.268-17.055H45.441a9.727,9.727,0,0,0,3.882-7.63,9.566,9.566,0,0,0-9.591-9.425,9.566,9.566,0,0,0-9.591,9.425,9.727,9.727,0,0,0,3.882,7.63H32.2c-6.622,0-10.732,4.264-10.732,11V0h1.827V-6.059c0-5.835,3.2-9.2,8.906-9.2H47.268c5.709,0,8.906,3.366,8.906,9.2V0H58V-6.059C58-12.791,53.89-17.055,47.268-17.055Zm-7.535,0a7.634,7.634,0,0,1-7.764-7.63,7.634,7.634,0,0,1,7.764-7.63,7.634,7.634,0,0,1,7.764,7.63A7.634,7.634,0,0,1,39.732-17.055ZM29.685-7.181a.974.974,0,0,0-.913.9V0H30.6V-6.283A.974.974,0,0,0,29.685-7.181Zm20.094,0a.974.974,0,0,0-.913.9V0h1.827V-6.283A.974.974,0,0,0,49.78-7.181ZM17.354-13.016A23.543,23.543,0,0,1,7.307-16.606c-.457-.224-.913-.224-1.142.224-.457.449-.228.9.228,1.122A23.172,23.172,0,0,0,17.126-11.22h.228c.457,0,.685-.224.913-.673A1.5,1.5,0,0,0,17.354-13.016ZM44.984-36.13a.974.974,0,0,0,.913.9h0a.974.974,0,0,0,.913-.9A22.972,22.972,0,0,0,44.3-47.8a.839.839,0,0,0-1.142-.449.815.815,0,0,0-.457,1.122A22.717,22.717,0,0,1,44.984-36.13ZM20.551-18.177a18.649,18.649,0,0,1-18.724-18.4A18.745,18.745,0,0,1,20.78-55.2,18.7,18.7,0,0,1,39.5-38.6a.974.974,0,0,0,.913.9,1.032,1.032,0,0,0,.913-1.122A20.619,20.619,0,0,0,20.78-57,20.678,20.678,0,0,0,0-36.579a20.435,20.435,0,0,0,20.551,20.2h0a.83.83,0,0,0,.913-.9A.974.974,0,0,0,20.551-18.177Zm.228-27.6a4.252,4.252,0,0,1,4.11,4.264h1.827a6.05,6.05,0,0,0-5.024-5.835v-3.815H19.866v3.815a6.047,6.047,0,0,0-5.252,5.835,6.047,6.047,0,0,0,6.165,5.835,4.058,4.058,0,0,1,4.11,4.039,4.111,4.111,0,0,1-4.11,4.264,4.3,4.3,0,0,1-4.339-4.264H14.614a6.1,6.1,0,0,0,5.252,6.059v3.591h1.827v-3.591a6.108,6.108,0,0,0,5.024-6.059,5.994,5.994,0,0,0-5.937-5.835,4.261,4.261,0,0,1-4.339-4.039A4.453,4.453,0,0,1,20.78-45.78Z" fill="#1179d5" fill-rule="evenodd"/>
  </g>
</svg>
