<svg xmlns="http://www.w3.org/2000/svg" width="38" height="58" viewBox="0 0 38 58">
  <g id="Groupe_859" data-name="Groupe 859" transform="translate(0 58)">
    <path id="Tracé_494" data-name="Tracé 494" d="M38-15.062h0a.221.221,0,0,0-.226-.225v-.225l-4.976-5.4h-.226V-35.519a.97.97,0,0,0-.9-.9H28.048v-6.295a.97.97,0,0,0-.9-.9H22.619v-5.4a.97.97,0,0,0-.9-.9H19.9V-57.1A.97.97,0,0,0,19-58a.97.97,0,0,0-.9.9v7.194h-1.81a.97.97,0,0,0-.9.9v5.4H10.857a.97.97,0,0,0-.9.9v6.295H6.333a.97.97,0,0,0-.9.9v14.837l-5.2,5.171c0,.225,0,.225-.226.225V0H1.81V-13.938H36.19V0H38V-15.062ZM17.19-48.109H20.81v4.5H17.19Zm-5.429,6.295H26.238v5.4H11.762ZM7.238-34.62H30.762v13.488H27.143v-9.891h-1.81v9.891H19.9v-9.891H18.1v9.891H12.667v-9.891h-1.81v9.891H7.238ZM3.167-15.736l3.619-3.6H31.667l3.393,3.6ZM28.952-.45h1.81v-9.891h-1.81Zm-7.238,0h1.81v-9.891h-1.81Zm-7.238,0h1.81v-9.891h-1.81Zm-7.238,0h1.81v-9.891H7.238Z" fill="#1179d5" fill-rule="evenodd"/>
  </g>
</svg>
