<svg xmlns="http://www.w3.org/2000/svg" width="45.901" height="45.109" viewBox="0 0 45.901 45.109">
  <g id="Groupe_851" data-name="Groupe 851" transform="translate(0 57)">
    <path id="Tracé_491" data-name="Tracé 491" d="M23.668-54.885V-56.3a.765.765,0,0,0-.717-.7.765.765,0,0,0-.717.7v1.41H0v1.41H2.152V-23.52a.765.765,0,0,0,.717.7H21.157L11.3-13.124a1.106,1.106,0,0,0,0,1.057.666.666,0,0,0,.538.176.666.666,0,0,0,.538-.176l9.861-9.691V-12.6a.765.765,0,0,0,.717.7.765.765,0,0,0,.717-.7v-9.163l9.861,9.691a.666.666,0,0,0,.538.176.666.666,0,0,0,.538-.176,1.106,1.106,0,0,0,0-1.057l-9.861-9.691H43.032a.765.765,0,0,0,.717-.7V-53.476H45.9v-1.41Zm18.647,30.66H3.586V-53.476H42.315ZM14.7-31.626a7.781,7.781,0,0,0,3.945-1.057h0a7.6,7.6,0,0,0,3.586-6.344,7.512,7.512,0,0,0-7.531-7.4,7.512,7.512,0,0,0-7.531,7.4A7.512,7.512,0,0,0,14.7-31.626Zm3.765-2.643-2.51-4.053H20.8A6.315,6.315,0,0,1,18.468-34.269ZM15.42-45.018A6.047,6.047,0,0,1,20.8-39.732H15.42Zm-1.434,0v6.344h.179l3.048,5.11a5.812,5.812,0,0,1-2.51.529,5.994,5.994,0,0,1-6.1-5.991A6.113,6.113,0,0,1,13.985-45.018Zm16.137.352,2.331,2.291a1.161,1.161,0,0,0,1.076,0l4.482-4.405v2.819h1.434v-5.286H34.067v1.41h2.869l-3.945,3.877L30.66-46.251a1.161,1.161,0,0,0-1.076,0l-4.3,4.229,1.076,1.057Zm-4.3,8.106H39.446v-1.41H25.819Zm0,4.229h7.172v-1.41H25.819Z" fill="#1179d5" fill-rule="evenodd"/>
  </g>
</svg>
