<svg xmlns="http://www.w3.org/2000/svg" width="46.645" height="38.164" viewBox="0 0 46.645 38.164">
  <g id="Groupe_841" data-name="Groupe 841" transform="translate(0 18)">
    <path id="Tracé_486" data-name="Tracé 486" d="M9.625,18.044c.495-2.984,3.11-4.177,5.781-5.136l.084-.028a7.126,7.126,0,0,0,5.3-6.9A9.168,9.168,0,0,0,18.481-.5c-.16-.2-.354-.447-.311-.392A4.778,4.778,0,0,1,18.245-3.8a1.76,1.76,0,0,0-.149-1.4c-.579-1.3-1.654-3.725-.847-5.682,1.084-2.709,2.045-3.242,3.786-4.025a2.248,2.248,0,0,0,.294-.159,7.2,7.2,0,0,1,3.3-.807,3.962,3.962,0,0,1,1.976.449c.631.355,1.235,1.034,2.149,3.21,1.7,3.884.624,6.055.08,6.808a2.123,2.123,0,0,0-.343,1.728A4.376,4.376,0,0,1,28.563-1c-.017.021-.272.345-.4.5a9.178,9.178,0,0,0-2.306,6.479,7.127,7.127,0,0,0,5.3,6.9l.084.028c2.671.959,5.286,2.152,5.781,5.136Zm22.152-7.195a5.062,5.062,0,0,1-3.8-4.875A7.534,7.534,0,0,1,30.14.412s1.24-1.085.408-4.585c1.384-1.919,1.833-5.043.14-8.9-.944-2.253-1.775-3.488-3.045-4.205A6.083,6.083,0,0,0,24.624-18a9.2,9.2,0,0,0-4.457,1.154c-2.121.952-3.546,1.829-4.885,5.17-1.16,2.808.22,5.854.9,7.384-.829,3.5.32,4.705.32,4.705a7.525,7.525,0,0,1,2.164,5.562,5.061,5.061,0,0,1-3.8,4.875c-2.412.868-7.448,2.53-7.448,8.255a1.038,1.038,0,0,0,1.06,1.06H38.164a1.038,1.038,0,0,0,1.06-1.06c0-5.725-5.036-7.387-7.448-8.255M42.144,8.513s-2.375-.539-2.375-3.626a6.105,6.105,0,0,1,1.3-4.325s.92-.938.257-3.659c.544-1.193,1.65-3.562.721-5.744-1.071-2.6-1.782-3.281-3.477-4.021A7.536,7.536,0,0,0,35-13.76a5.166,5.166,0,0,0-2.138.436,15.977,15.977,0,0,1,.663,2.035c.026-.016.054-.035.082-.051a2.876,2.876,0,0,1,1.393-.3,5.651,5.651,0,0,1,2.427.564,2.144,2.144,0,0,0,.292.157c1.043.454,1.434.625,2.365,2.885.561,1.318-.238,3.069-.667,4.011A2.254,2.254,0,0,0,39.263-2.6a3.593,3.593,0,0,1,.108,1.883l-.017.025-.071.1a8.183,8.183,0,0,0-1.635,5.479,5.588,5.588,0,0,0,3.876,5.656A3.879,3.879,0,0,1,44.446,13.8l-4.585,0a8.913,8.913,0,0,1,1,2.12l4.727,0a1.038,1.038,0,0,0,1.06-1.06,6.1,6.1,0,0,0-4.5-6.348M5.12,10.543A5.588,5.588,0,0,0,9,4.888,8.2,8.2,0,0,0,7.362-.591l-.071-.1a.3.3,0,0,0-.019-.025A3.609,3.609,0,0,1,7.381-2.6a2.254,2.254,0,0,0-.153-1.426C6.8-4.964,6-6.715,6.56-8.033c.931-2.26,1.319-2.431,2.365-2.885a2.022,2.022,0,0,0,.292-.157,5.651,5.651,0,0,1,2.427-.564,2.916,2.916,0,0,1,1.317.274,8.288,8.288,0,0,1,.352-1.1c.13-.325.268-.6.4-.89a5.2,5.2,0,0,0-2.071-.406,7.536,7.536,0,0,0-3.567.9c-1.7.74-2.408,1.424-3.477,4.021-.929,2.182.177,4.551.721,5.744C4.656-.376,5.578.562,5.578.562a6.1,6.1,0,0,1,1.3,4.325A3.421,3.421,0,0,1,4.5,8.513,6.105,6.105,0,0,0,0,14.861a1.038,1.038,0,0,0,1.06,1.06l4.727,0a8.831,8.831,0,0,1,1-2.12L2.2,13.8A3.879,3.879,0,0,1,5.12,10.543" transform="translate(0 0)" fill="#1179d5" fill-rule="evenodd"/>
  </g>
</svg>
