<?xml version="1.0" encoding="iso-8859-1"?>
<!-- Generator: Adobe Illustrator 19.0.0, SVG Export Plug-In . SVG Version: 6.00 Build 0)  -->
<svg version="1.1" id="Capa_1" xmlns="http://www.w3.org/2000/svg" xmlns:xlink="http://www.w3.org/1999/xlink" x="0px" y="0px"
	 viewBox="0 0 512 512" style="enable-background:new 0 0 512 512;" xml:space="preserve">
<g>
	<g>
		<g>
			<path d="M250.833,122.824c24.167-24.177,56.313-37.49,90.5-37.49c34.188,0,66.333,13.313,90.5,37.49
				c2.083,2.083,4.813,3.125,7.542,3.125c2.729,0,5.458-1.042,7.542-3.125c4.167-4.167,4.167-10.917,0-15.083
				c-28.208-28.208-65.708-43.74-105.583-43.74c-39.875,0-77.375,15.531-105.583,43.74c-4.167,4.167-4.167,10.917,0,15.083
				S246.666,126.991,250.833,122.824z"/>
			<path d="M409.208,156.116c2.729,0,5.458-1.042,7.542-3.125c4.167-4.167,4.167-10.917,0-15.083
				c-20.146-20.146-46.917-31.24-75.417-31.24c-28.5,0-55.271,11.094-75.417,31.24c-4.167,4.167-4.167,10.917,0,15.083
				c4.167,4.167,10.917,4.167,15.083,0c32.208-32.229,88.458-32.229,120.667,0C403.75,155.074,406.479,156.116,409.208,156.116z"/>
			<path d="M379.042,186.293c2.729,0,5.458-1.042,7.542-3.125c4.167-4.167,4.167-10.917,0-15.083
				c-24.958-24.958-65.542-24.958-90.5,0c-4.167,4.167-4.167,10.917,0,15.083c4.167,4.167,10.917,4.167,15.083,0
				c16.625-16.625,43.708-16.625,60.333,0C373.583,185.251,376.313,186.293,379.042,186.293z"/>
			<path d="M320,213.334c0,11.76,9.563,21.333,21.333,21.333c11.771,0,21.333-9.573,21.333-21.333
				c0-11.76-9.563-21.333-21.333-21.333C329.563,192.001,320,201.574,320,213.334z"/>
			<path d="M99.625,230.915L12.75,213.54c-3.104-0.625-6.375,0.188-8.854,2.208C1.437,217.78,0,220.801,0,223.998v170.667
				c0,5.896,4.771,10.667,10.667,10.667H77.5c15.833,0,29.458-11.813,31.688-27.469l15.854-111.042
				C127.437,250.009,116.292,234.238,99.625,230.915z"/>
			<path d="M448,309.332c-13.318,0-35.779,4.747-55.974,9.815c-4.944,1.241-8.145,5.781-8.033,10.878
				c0.004,0.212,0.006,0.426,0.006,0.641c0,16.135-7.104,30.302-19.979,39.917c-12.479,9.313-28.5,13.656-50.417,13.656
				c-28.704,0-67.768-7.434-119.438-22.712c-5.332-1.577-9.102-6.879-8.059-12.341c1.203-6.301,7.56-10.073,13.517-8.29
				c49.292,14.604,87.625,22.01,113.979,22.01c22.438,0,32.25-5.375,37.667-9.427c7.458-5.563,11.396-13.448,11.396-22.813
				c0-1.789-0.326-3.4-0.552-5.068c-4.038-29.449-42.814-39.964-82.656-48.057c-18.5-3.75-32.271-10.385-45.583-16.813
				c-16.417-7.917-31.917-15.396-52.542-15.396c-8.177,0-16.812,0.595-25.678,1.764c-5.598,0.74-9.638,5.759-9.215,11.389
				c0.31,4.134,0.225,7.844-0.294,11.357l-15.854,111.073c-0.146,1-0.438,1.938-0.688,2.885c-0.021,0.094-0.542,2.052-0.563,2.135
				c-1.229,5.01,1.292,10.188,6,12.292c50.75,22.708,118.5,49.771,152.958,49.771c41.375,0,126.563-41.875,182.917-69.583
				c14.547-7.15,26.6-13.083,34.48-16.546c3.818-1.677,6.556-5.313,6.6-9.482C512.271,327.054,485.882,309.332,448,309.332z"/>
		</g>
	</g>
</g>
<g>
</g>
<g>
</g>
<g>
</g>
<g>
</g>
<g>
</g>
<g>
</g>
<g>
</g>
<g>
</g>
<g>
</g>
<g>
</g>
<g>
</g>
<g>
</g>
<g>
</g>
<g>
</g>
<g>
</g>
</svg>
