<?xml version="1.0" encoding="iso-8859-1"?>
<!-- Generator: Adobe Illustrator 19.0.0, SVG Export Plug-In . SVG Version: 6.00 Build 0)  -->
<svg version="1.1" id="Capa_1" xmlns="http://www.w3.org/2000/svg" xmlns:xlink="http://www.w3.org/1999/xlink" x="0px" y="0px"
	 viewBox="0 0 512 512" style="enable-background:new 0 0 512 512;" xml:space="preserve">
<g>
	<g>
		<g>
			<path d="M379.875,127.206c1.354,0.563,2.75,0.823,4.125,0.823c4.167,0,8.125-2.458,9.833-6.552
				c7.625-18.228,11.5-37.561,11.5-57.456c0-19.895-3.875-39.227-11.5-57.456c-2.271-5.437-8.5-8-13.958-5.729
				c-5.417,2.281-7.979,8.52-5.708,13.958C380.688,30.409,384,46.971,384,64.022c0,17.051-3.313,33.613-9.833,49.227
				C371.896,118.686,374.458,124.925,379.875,127.206z"/>
			<path d="M128,128.029c1.375,0,2.771-0.26,4.125-0.823c5.417-2.281,7.979-8.52,5.708-13.958C131.313,97.635,128,81.073,128,64.022
				c0-17.051,3.313-33.613,9.833-49.227c2.271-5.437-0.292-11.676-5.708-13.958c-5.479-2.292-11.688,0.281-13.958,5.729
				c-7.625,18.228-11.5,37.561-11.5,57.456c0,19.895,3.875,39.227,11.5,57.456C119.875,125.571,123.833,128.029,128,128.029z"/>
			<path d="M342.896,106.155c1.188,0.427,2.396,0.625,3.583,0.625c4.375,0,8.479-2.719,10.042-7.083
				c4.083-11.416,6.146-23.426,6.146-35.675c0-12.135-2.042-24.051-6.042-35.425c-1.979-5.552-8.146-8.448-13.604-6.51
				c-5.563,1.969-8.479,8.052-6.521,13.614c3.208,9.083,4.833,18.614,4.833,28.321c0,9.802-1.646,19.395-4.896,28.509
				C334.458,98.073,337.354,104.176,342.896,106.155z"/>
			<path d="M165.521,106.78c1.188,0,2.396-0.198,3.583-0.625c5.542-1.979,8.438-8.083,6.458-13.624
				c-3.25-9.114-4.896-18.707-4.896-28.509c0-9.708,1.625-19.239,4.833-28.321c1.958-5.562-0.958-11.645-6.521-13.614
				c-5.438-1.885-11.646,0.969-13.604,6.51c-4,11.374-6.042,23.29-6.042,35.425c0,12.249,2.063,24.259,6.146,35.675
				C157.042,104.062,161.146,106.78,165.521,106.78z"/>
			<path d="M437.333,490.667H413.71l-115.737-378.74C311.361,100.189,320,83.164,320,64c0-35.292-28.708-64-64-64s-64,28.708-64,64
				c0,19.163,8.638,36.186,22.025,47.924L98.293,490.667H74.667c-5.896,0-10.667,4.771-10.667,10.667
				C64,507.229,68.771,512,74.667,512H160c5.896,0,10.667-4.771,10.667-10.667c0-5.896-4.771-10.667-10.667-10.667h-6.194
				L256,340.393l102.194,150.273H352c-5.896,0-10.667,4.771-10.667,10.667c0,5.896,4.771,10.667,10.667,10.667h85.333
				c5.896,0,10.667-4.771,10.667-10.667C448,495.438,443.229,490.667,437.333,490.667z M176.102,381.987l33.54-109.764
				l20.552,30.223L176.102,381.987z M225.643,219.857l28.137-92.081c0.754,0.026,1.46,0.224,2.22,0.224
				c0.759,0,1.464-0.198,2.216-0.224l28.139,92.083L256,264.497L225.643,219.857z M281.806,302.445l20.551-30.22l33.54,109.759
				L281.806,302.445z"/>
		</g>
	</g>
</g>
<g>
</g>
<g>
</g>
<g>
</g>
<g>
</g>
<g>
</g>
<g>
</g>
<g>
</g>
<g>
</g>
<g>
</g>
<g>
</g>
<g>
</g>
<g>
</g>
<g>
</g>
<g>
</g>
<g>
</g>
</svg>
