<?xml version="1.0" encoding="iso-8859-1"?>
<!-- Generator: Adobe Illustrator 19.0.0, SVG Export Plug-In . SVG Version: 6.00 Build 0)  -->
<svg version="1.1" id="Capa_1" xmlns="http://www.w3.org/2000/svg" xmlns:xlink="http://www.w3.org/1999/xlink" x="0px" y="0px"
	 viewBox="0 0 512 512" style="enable-background:new 0 0 512 512;" xml:space="preserve">
<g>
	<g>
		<g>
			<path d="M346.5,389.177c-24.167,24.177-56.313,37.49-90.5,37.49s-66.333-13.313-90.5-37.49c-4.167-4.167-10.917-4.167-15.083,0
				c-4.167,4.167-4.167,10.917,0,15.083C178.625,432.469,216.125,448,256,448s77.375-15.531,105.583-43.74
				c4.167-4.167,4.167-10.917,0-15.083C357.417,385.01,350.667,385.01,346.5,389.177z"/>
			<path d="M180.583,359.01c-4.167,4.167-4.167,10.917,0,15.083c20.146,20.146,46.917,31.24,75.417,31.24
				s55.271-11.094,75.417-31.24c4.167-4.167,4.167-10.917,0-15.083c-4.167-4.167-10.917-4.167-15.083,0
				c-32.208,32.229-88.458,32.229-120.667,0C191.5,354.844,184.75,354.844,180.583,359.01z"/>
			<path d="M210.75,328.833c-4.167,4.167-4.167,10.917,0,15.083c12.479,12.479,28.854,18.719,45.25,18.719s32.771-6.24,45.25-18.719
				c4.167-4.167,4.167-10.917,0-15.083c-4.167-4.167-10.917-4.167-15.083,0c-16.625,16.625-43.708,16.625-60.333,0
				C221.667,324.667,214.917,324.667,210.75,328.833z"/>
			<path d="M416,213.333c-5.875,0-10.667-4.781-10.667-10.667c0-5.885,4.792-10.667,10.667-10.667c3.813,0,7.604,0.208,11.313,0.573
				c3.75,0.344,7.167-1.167,9.417-4.01c2.25-2.854,2.896-6.656,1.708-10.083C414.792,110,350.063,64,277.333,64
				c-55.188,0-107.125,26.896-138.938,71.938c-2.083,2.938-2.542,6.729-1.208,10.073c1.313,3.344,4.229,5.802,7.75,6.531
				c20.5,4.229,39.688,12.688,55.5,24.448c4.708,3.51,5.688,10.208,2.188,14.927c-3.479,4.698-10.188,5.677-14.938,2.198
				c-17.292-12.854-38.146-20.688-60.271-22.635l-2.625-0.281c-2.479-0.271-4.938-0.531-7.458-0.531C52.646,170.667,0,223.302,0,288
				c0,63.5,51.729,116.052,115.313,117.146c5.5-0.313,10.521-4.375,10.833-10.094c0.438-8.031,3.688-15.469,9.188-20.958
				c3.896-3.885,8.75-6.625,14.458-8.135c3.708-0.979,6.604-3.885,7.583-7.594c1.5-5.698,4.229-10.552,8.125-14.448
				c3.875-3.875,8.729-6.615,14.438-8.115c3.708-0.979,6.604-3.865,7.583-7.573c1.521-5.719,4.25-10.594,8.146-14.479
				c3.104-3.115,6.833-5.521,11.063-7.156c3.958-1.542,6.646-5.292,6.813-9.542C214.417,274.031,233.063,256,256,256
				s41.583,18.031,42.458,41.052c0.167,4.25,2.854,8,6.813,9.542c4.229,1.635,7.958,4.042,11.063,7.156
				c3.896,3.885,6.625,8.76,8.146,14.479c0.979,3.708,3.875,6.594,7.583,7.573c5.708,1.5,10.563,4.24,14.438,8.115
				c3.896,3.896,6.625,8.75,8.125,14.448c0.979,3.708,3.875,6.615,7.583,7.594c5.708,1.51,10.563,4.25,14.458,8.146
				c5.542,5.521,8.813,13.01,9.208,21.083c0.271,5.677,4.958,10.146,10.646,10.146H416c52.938,0,96-43.063,96-96
				C512,256.396,468.938,213.333,416,213.333z"/>
			<path d="M277.333,298.667c0-11.76-9.563-21.333-21.333-21.333s-21.333,9.573-21.333,21.333c0,11.76,9.563,21.333,21.333,21.333
				S277.333,310.427,277.333,298.667z"/>
		</g>
	</g>
</g>
<g>
</g>
<g>
</g>
<g>
</g>
<g>
</g>
<g>
</g>
<g>
</g>
<g>
</g>
<g>
</g>
<g>
</g>
<g>
</g>
<g>
</g>
<g>
</g>
<g>
</g>
<g>
</g>
<g>
</g>
</svg>
