<?xml version="1.0" encoding="iso-8859-1"?>
<!-- Generator: Adobe Illustrator 19.0.0, SVG Export Plug-In . SVG Version: 6.00 Build 0)  -->
<svg version="1.1" id="Capa_1" xmlns="http://www.w3.org/2000/svg" xmlns:xlink="http://www.w3.org/1999/xlink" x="0px" y="0px"
	 viewBox="0 0 512 512" style="enable-background:new 0 0 512 512;" xml:space="preserve">
<g>
	<g>
		<g>
			<path d="M480,266.667H288c-17.646,0-32,14.354-32,32v128c0,17.646,14.354,32,32,32h85.333V480h-32
				c-5.896,0-10.667,4.771-10.667,10.667s4.771,10.667,10.667,10.667h85.333c5.896,0,10.667-4.771,10.667-10.667
				S432.563,480,426.667,480h-32v-21.333H480c17.646,0,32-14.354,32-32v-128C512,281.021,497.646,266.667,480,266.667z M490.667,416
				H277.333V298.667c0-5.885,4.781-10.667,10.667-10.667h192c5.885,0,10.667,4.781,10.667,10.667V416z"/>
			<path d="M256,42.667c0-17.646-14.354-32-32-32H32c-17.646,0-32,14.354-32,32v128c0,17.646,14.354,32,32,32h85.333V224h-32
				c-5.896,0-10.667,4.771-10.667,10.667c0,5.896,4.771,10.667,10.667,10.667h85.333c5.896,0,10.667-4.771,10.667-10.667
				c0-5.896-4.771-10.667-10.667-10.667h-32v-21.333H224c17.646,0,32-14.354,32-32V42.667z M234.667,160H21.333V42.667
				C21.333,36.781,26.115,32,32,32h192c5.885,0,10.667,4.781,10.667,10.667V160z"/>
			<path d="M288,138.667h74.667v96c0,5.896,4.771,10.667,10.667,10.667c5.896,0,10.667-4.771,10.667-10.667V128
				c0-5.896-4.771-10.667-10.667-10.667H288c-5.896,0-10.667,4.771-10.667,10.667S282.104,138.667,288,138.667z"/>
			<path d="M224,373.333h-96v-74.667c0-5.896-4.771-10.667-10.667-10.667c-5.896,0-10.667,4.771-10.667,10.667V384
				c0,5.896,4.771,10.667,10.667,10.667H224c5.896,0,10.667-4.771,10.667-10.667C234.667,378.104,229.896,373.333,224,373.333z"/>
		</g>
	</g>
</g>
<g>
</g>
<g>
</g>
<g>
</g>
<g>
</g>
<g>
</g>
<g>
</g>
<g>
</g>
<g>
</g>
<g>
</g>
<g>
</g>
<g>
</g>
<g>
</g>
<g>
</g>
<g>
</g>
<g>
</g>
</svg>
