<?xml version="1.0" encoding="iso-8859-1"?>
<!-- Generator: Adobe Illustrator 19.0.0, SVG Export Plug-In . SVG Version: 6.00 Build 0)  -->
<svg version="1.1" id="Capa_1" xmlns="http://www.w3.org/2000/svg" xmlns:xlink="http://www.w3.org/1999/xlink" x="0px" y="0px"
	 viewBox="0 0 426.667 426.667" style="enable-background:new 0 0 426.667 426.667;" xml:space="preserve">
<g>
	<g>
		<g>
			<circle cx="170.667" cy="85.76" r="42.667"/>
			<path d="M384,0H42.667C19.135,0,0,19.135,0,42.667v234.667C0,300.865,19.135,320,42.667,320h160v42.667H192
				c-5.896,0-10.667,4.771-10.667,10.667V384H32c-5.896,0-10.667,4.771-10.667,10.667c0,5.896,4.771,10.667,10.667,10.667h149.333
				V416c0,5.896,4.771,10.667,10.667,10.667h42.667c5.896,0,10.667-4.771,10.667-10.667v-10.667h149.333
				c5.896,0,10.667-4.771,10.667-10.667c0-5.896-4.771-10.667-10.667-10.667H245.333v-10.667c0-5.896-4.771-10.667-10.667-10.667
				H224V320h160c23.531,0,42.667-19.135,42.667-42.667V42.667C426.667,19.135,407.531,0,384,0z M405.333,230.645L274.208,99.51
				c-2-2-4.708-3.125-7.542-3.125c-3.594-0.385-5.583,1.135-7.583,3.167l-70.813,71.521c-4.125,4.167-4.115,10.896,0.042,15.042
				l25.927,25.927c2.01,2.021,3.125,4.698,3.125,7.542s-1.115,5.521-3.125,7.542c-4.042,4.021-11.042,4.021-15.083,0l-63.615-63.615
				c-4.167-4.167-10.917-4.167-15.083,0l-99.125,99.125V42.667c0-11.76,9.573-21.333,21.333-21.333H384
				c11.76,0,21.333,9.573,21.333,21.333V230.645z"/>
		</g>
	</g>
</g>
<g>
</g>
<g>
</g>
<g>
</g>
<g>
</g>
<g>
</g>
<g>
</g>
<g>
</g>
<g>
</g>
<g>
</g>
<g>
</g>
<g>
</g>
<g>
</g>
<g>
</g>
<g>
</g>
<g>
</g>
</svg>
