<?xml version="1.0" encoding="iso-8859-1"?>
<!-- Generator: Adobe Illustrator 19.0.0, SVG Export Plug-In . SVG Version: 6.00 Build 0)  -->
<svg version="1.1" id="Capa_1" xmlns="http://www.w3.org/2000/svg" xmlns:xlink="http://www.w3.org/1999/xlink" x="0px" y="0px"
	 viewBox="0 0 469.333 469.333" style="enable-background:new 0 0 469.333 469.333;" xml:space="preserve">
<g>
	<g>
		<path d="M426.667,0h-384C19.146,0,0,19.135,0,42.667v416c0,4.313,2.604,8.208,6.583,9.854c1.313,0.552,2.708,0.813,4.083,0.813
			c2.771,0,5.5-1.083,7.542-3.125L121.75,362.667h304.917c23.521,0,42.667-19.135,42.667-42.667V42.667
			C469.333,19.135,450.188,0,426.667,0z M213.083,189.812c0,0.167,0.146,1.469,0.229,2.156h-0.021
			c-0.042,0.333-0.208,1.896-0.208,2.229c-0.208,4.219,2.104,8.146,5.875,10.031l41.021,20.5c3.813,1.885,8.333,1.365,11.604-1.344
			c7.896-6.573,17.271-10.052,27.083-10.052c23.521,0,42.667,19.135,42.667,42.667s-19.146,42.667-42.667,42.667
			c-23.521,0-42.667-19.135-42.625-42.635c0.042-0.333,0.208-1.875,0.208-2.219c0.208-4.208-2.104-8.146-5.875-10.031l-41.021-20.5
			c-1.521-0.75-3.146-1.125-4.771-1.125c-2.438,0-4.854,0.833-6.813,2.458c-7.917,6.573-17.292,10.052-27.104,10.052
			C147.146,234.667,128,215.531,128,192s19.146-42.667,42.667-42.667c9.813,0,19.188,3.479,27.083,10.052
			c3.25,2.698,7.792,3.208,11.604,1.344l41.021-20.51c3.771-1.885,6.083-5.823,5.875-10.031c-0.021-0.75-0.104-1.49-0.25-2.188
			c0-23.531,19.146-42.667,42.667-42.667c23.521,0,42.667,19.135,42.667,42.667s-19.146,42.667-42.667,42.667
			c-9.813,0-19.188-3.479-27.083-10.052c-3.271-2.719-7.813-3.229-11.604-1.344l-41.021,20.51
			C215.187,181.667,212.875,185.604,213.083,189.812z"/>
	</g>
</g>
<g>
</g>
<g>
</g>
<g>
</g>
<g>
</g>
<g>
</g>
<g>
</g>
<g>
</g>
<g>
</g>
<g>
</g>
<g>
</g>
<g>
</g>
<g>
</g>
<g>
</g>
<g>
</g>
<g>
</g>
</svg>
