<?xml version="1.0" encoding="iso-8859-1"?>
<!-- Generator: Adobe Illustrator 19.0.0, SVG Export Plug-In . SVG Version: 6.00 Build 0)  -->
<svg version="1.1" id="Capa_1" xmlns="http://www.w3.org/2000/svg" xmlns:xlink="http://www.w3.org/1999/xlink" x="0px" y="0px"
	 viewBox="0 0 512 512" style="enable-background:new 0 0 512 512;" xml:space="preserve">
<g>
	<g>
		<path d="M437.333,469.333H288v-10.667c0-5.896-4.771-10.667-10.667-10.667h-10.667v-42.667h96
			c23.531,0,42.667-19.135,42.667-42.667V96c0-2.954-1.201-5.624-3.138-7.555L316.888,3.138C314.957,1.201,312.288,0,309.333,0h-160
			c-23.531,0-42.667,19.135-42.667,42.667v320c0,23.531,19.135,42.667,42.667,42.667h96V448h-10.667
			c-5.896,0-10.667,4.771-10.667,10.667v10.667H74.667C68.771,469.333,64,474.104,64,480c0,5.896,4.771,10.667,10.667,10.667H224
			v10.667c0,5.896,4.771,10.667,10.667,10.667h42.667c5.896,0,10.667-4.771,10.667-10.667v-10.667h149.333
			c5.896,0,10.667-4.771,10.667-10.667C448,474.104,443.229,469.333,437.333,469.333z M320,36.417l48.917,48.917h-27.583
			C329.573,85.333,320,75.76,320,64V36.417z"/>
	</g>
</g>
<g>
</g>
<g>
</g>
<g>
</g>
<g>
</g>
<g>
</g>
<g>
</g>
<g>
</g>
<g>
</g>
<g>
</g>
<g>
</g>
<g>
</g>
<g>
</g>
<g>
</g>
<g>
</g>
<g>
</g>
</svg>
