<?xml version="1.0" encoding="iso-8859-1"?>
<!-- Generator: Adobe Illustrator 19.0.0, SVG Export Plug-In . SVG Version: 6.00 Build 0)  -->
<svg version="1.1" id="Capa_1" xmlns="http://www.w3.org/2000/svg" xmlns:xlink="http://www.w3.org/1999/xlink" x="0px" y="0px"
	 viewBox="0 0 512 512" style="enable-background:new 0 0 512 512;" xml:space="preserve">
<g>
	<g>
		<g>
			<path d="M320,170.667c23.531,0,42.667-19.135,42.667-42.667S343.531,85.333,320,85.333S277.333,104.469,277.333,128
				c0,3.061,0.354,6.036,0.97,8.917l-54.302,27.16c-7.827-8.958-19.195-14.744-32.001-14.744c-23.531,0-42.667,19.135-42.667,42.667
				s19.135,42.667,42.667,42.667c12.806,0,24.174-5.785,32.001-14.744l54.302,27.16c-0.616,2.88-0.97,5.855-0.97,8.917
				c0,23.531,19.135,42.667,42.667,42.667s42.667-19.135,42.667-42.667S343.531,213.333,320,213.333
				c-12.806,0-24.174,5.785-32.001,14.744l-54.302-27.16c0.616-2.88,0.97-5.855,0.97-8.917s-0.354-6.036-0.97-8.917l54.302-27.16
				C295.826,164.882,307.194,170.667,320,170.667z"/>
			<path d="M469.333,21.333H42.667C19.146,21.333,0,40.469,0,64v298.667c0,23.531,19.146,42.667,42.667,42.667h149.381
				c-0.448,17.018-3.698,44.24-15.902,57.094c-4.479,4.708-9.604,6.906-16.146,6.906c-5.896,0-10.667,4.771-10.667,10.667
				c0,5.896,4.771,10.667,10.667,10.667h192c5.896,0,10.667-4.771,10.667-10.667c0-5.896-4.771-10.667-10.667-10.667
				c-6.542,0-11.667-2.188-16.125-6.896c-12.174-12.79-15.445-40.051-15.91-57.104h149.369c23.521,0,42.667-19.135,42.667-42.667V64
				C512,40.469,492.854,21.333,469.333,21.333z M256,384.063c-11.792,0-21.396-9.604-21.396-21.396s9.604-21.396,21.396-21.396
				s21.396,9.604,21.396,21.396S267.792,384.063,256,384.063z M42.667,320V64h426.667l0.018,256H42.667z"/>
		</g>
	</g>
</g>
<g>
</g>
<g>
</g>
<g>
</g>
<g>
</g>
<g>
</g>
<g>
</g>
<g>
</g>
<g>
</g>
<g>
</g>
<g>
</g>
<g>
</g>
<g>
</g>
<g>
</g>
<g>
</g>
<g>
</g>
</svg>
