<?xml version="1.0" encoding="iso-8859-1"?>
<!-- Generator: Adobe Illustrator 19.0.0, SVG Export Plug-In . SVG Version: 6.00 Build 0)  -->
<svg version="1.1" id="Capa_1" xmlns="http://www.w3.org/2000/svg" xmlns:xlink="http://www.w3.org/1999/xlink" x="0px" y="0px"
	 viewBox="0 0 512 512" style="enable-background:new 0 0 512 512;" xml:space="preserve">
<g>
	<g>
		<g>
			<circle cx="426.667" cy="384" r="42.667"/>
			<path d="M490.396,453.052c-14.917-7.167-38.063-15.719-63.729-15.719s-48.813,8.552-63.729,15.719
				c-13.333,6.417-21.604,19.219-21.604,33.406v4.875c0,11.396,9.563,20.667,21.333,20.667h128c11.771,0,21.333-9.271,21.333-20.667
				v-4.875C512,472.271,503.729,459.469,490.396,453.052z"/>
			<circle cx="85.333" cy="384" r="42.667"/>
			<path d="M149.063,453.052c-14.917-7.167-38.063-15.719-63.729-15.719c-25.667,0-48.813,8.552-63.729,15.719
				C8.271,459.469,0,472.271,0,486.458v4.875C0,502.729,9.563,512,21.333,512h128c11.771,0,21.333-9.271,21.333-20.667v-4.875
				C170.667,472.271,162.396,459.469,149.063,453.052z"/>
			<path d="M416,309.333c0,5.896,4.771,10.667,10.667,10.667s10.667-4.771,10.667-10.667v-64c0-5.896-4.771-10.667-10.667-10.667
				H288V224c0-5.896-4.771-10.667-10.667-10.667h-10.667v-42.667h64c29.417,0,53.333-23.927,53.333-53.333
				c0-22.789-14.431-42.137-34.587-49.756C341.096,28.668,306.889,0,266.667,0c-30.378,0-58.355,16.643-73.507,42.803
				c-0.393-0.008-0.767-0.137-1.16-0.137c-35.292,0-64,28.708-64,64c0,35.292,28.708,64,64,64h53.333v42.667h-10.667
				c-5.896,0-10.667,4.771-10.667,10.667v10.667H85.333c-5.896,0-10.667,4.771-10.667,10.667v64c0,5.896,4.771,10.667,10.667,10.667
				C91.229,320,96,315.229,96,309.333V256h128v10.667c0,5.896,4.771,10.667,10.667,10.667h42.667
				c5.896,0,10.667-4.771,10.667-10.667V256h128V309.333z"/>
		</g>
	</g>
</g>
<g>
</g>
<g>
</g>
<g>
</g>
<g>
</g>
<g>
</g>
<g>
</g>
<g>
</g>
<g>
</g>
<g>
</g>
<g>
</g>
<g>
</g>
<g>
</g>
<g>
</g>
<g>
</g>
<g>
</g>
</svg>
