<?xml version="1.0" encoding="iso-8859-1"?>
<!-- Generator: Adobe Illustrator 19.0.0, SVG Export Plug-In . SVG Version: 6.00 Build 0)  -->
<svg version="1.1" id="Capa_1" xmlns="http://www.w3.org/2000/svg" xmlns:xlink="http://www.w3.org/1999/xlink" x="0px" y="0px"
	 viewBox="0 0 469.333 469.333" style="enable-background:new 0 0 469.333 469.333;" xml:space="preserve">
<g>
	<g>
		<g>
			<path d="M149.333,341.333c12.797,0,24.163-5.78,31.991-14.734l54.314,27.148c-0.616,2.882-0.971,5.857-0.971,8.919
				c0,23.531,19.146,42.667,42.667,42.667c23.521,0,42.667-19.135,42.667-42.667S300.854,320,277.333,320
				c-12.799,0-24.169,5.784-31.997,14.742l-54.31-27.147c0.617-2.884,0.974-5.862,0.974-8.928c0-3.063-0.355-6.039-0.971-8.921
				l54.309-27.154c7.828,8.957,19.197,14.741,31.996,14.741c23.521,0,42.667-19.135,42.667-42.667S300.854,192,277.333,192
				c-23.521,0-42.667,19.135-42.667,42.667c0,3.063,0.355,6.039,0.971,8.921l-54.309,27.154
				C173.501,261.784,162.133,256,149.333,256c-23.521,0-42.667,19.135-42.667,42.667S125.812,341.333,149.333,341.333z"/>
			<path d="M426.667,42.667h-53.333c-5.896,0-10.667,4.771-10.667,10.667v53.333c0,11.76-9.573,21.333-21.333,21.333
				S320,118.427,320,106.667c0-8.917,5.729-16.948,14.25-19.979c4.25-1.521,7.083-5.542,7.083-10.052V10.667
				C341.333,4.771,336.563,0,330.667,0C324.771,0,320,4.771,320,10.667v32H160c-5.896,0-10.667,4.771-10.667,10.667v53.333
				c0,11.76-9.573,21.333-21.333,21.333c-11.76,0-21.333-9.573-21.333-21.333c0-8.917,5.729-16.948,14.25-19.979
				c4.25-1.521,7.083-5.542,7.083-10.052V10.667C128,4.771,123.229,0,117.333,0c-5.896,0-10.667,4.771-10.667,10.667v32h-64
				C19.135,42.667,0,61.802,0,85.333v341.333c0,23.531,19.135,42.667,42.667,42.667h304.885c5.656,0,11.083-2.25,15.083-6.25
				l100.448-100.417c4-4,6.25-9.427,6.25-15.083V85.333C469.333,61.802,450.198,42.667,426.667,42.667z M426.667,341.333H384
				c-23.531,0-42.667,19.135-42.667,42.667v42.667H42.667v-256h384V341.333z"/>
		</g>
	</g>
</g>
<g>
</g>
<g>
</g>
<g>
</g>
<g>
</g>
<g>
</g>
<g>
</g>
<g>
</g>
<g>
</g>
<g>
</g>
<g>
</g>
<g>
</g>
<g>
</g>
<g>
</g>
<g>
</g>
<g>
</g>
</svg>
