<svg id="Groupe_830" data-name="Groupe 830" xmlns="http://www.w3.org/2000/svg" width="34.582" height="43.804" viewBox="0 0 34.582 43.804">
  <path id="Tracé_485" data-name="Tracé 485" d="M33.89-57H10.72c0,.171,0,.171-.173.171L.173-46.562c0,.171,0,.171-.173.171v32.51a.74.74,0,0,0,.692.684h33.2a.74.74,0,0,0,.692-.684V-56.316A.74.74,0,0,0,33.89-57ZM10.375-54.6v7.871H2.421ZM33.2-14.565H1.383v-30.8h9.683a.74.74,0,0,0,.692-.684v-9.582H33.2ZM5.533-41.258h24.9v-1.369H5.533Zm24.9,2.738H5.533v1.369h24.9ZM15.908-34.414H5.533v1.369H15.908Zm7.262,1.369h0a8.815,8.815,0,0,0-5.706,2.224,8.623,8.623,0,0,0-2.248,5.647A8,8,0,0,0,23.17-17.3a8,8,0,0,0,7.954-7.871A8,8,0,0,0,23.17-33.045Zm0,14.373a6.534,6.534,0,0,1-6.571-6.5,6.575,6.575,0,0,1,1.9-4.62,6.717,6.717,0,0,1,4.669-1.882h0a6.534,6.534,0,0,1,6.571,6.5A6.534,6.534,0,0,1,23.17-18.672ZM25.763-27.4l-3.631,3.593-1.556-1.54a1.113,1.113,0,0,0-1.037,0,1.081,1.081,0,0,0,0,1.027l2.075,2.053a.639.639,0,0,0,.519.171.639.639,0,0,0,.519-.171l4.15-4.107a1.081,1.081,0,0,0,0-1.027A1.113,1.113,0,0,0,25.763-27.4Z" transform="translate(0 57)" fill="#1179d5" fill-rule="evenodd"/>
</svg>
