<svg id="Groupe_840" data-name="Groupe 840" xmlns="http://www.w3.org/2000/svg" width="46.561" height="46.561" viewBox="0 0 46.561 46.561">
  <path id="Tracé_484" data-name="Tracé 484" d="M42.2-17.714a4.346,4.346,0,0,0,.909-2.546,4.037,4.037,0,0,0-4-4,4.037,4.037,0,0,0-4,4,4.346,4.346,0,0,0,.909,2.546,4,4,0,0,0-3.274,1.455c-.728-2.364-2.728-3.638-5.456-3.638h-.364a5.078,5.078,0,0,0,1.455-3.638,5.2,5.2,0,0,0-5.093-5.093,5.2,5.2,0,0,0-5.093,5.093A5.078,5.078,0,0,0,19.643-19.9h-.364c-2.728,0-4.729,1.273-5.456,3.638a4,4,0,0,0-3.274-1.455,4.346,4.346,0,0,0,.909-2.546,4.037,4.037,0,0,0-4-4,4.037,4.037,0,0,0-4,4,4.346,4.346,0,0,0,.909,2.546C1.637-17.714,0-15.9,0-12.985v2.546H1.455v-2.546c0-1.273.364-3.274,3.092-3.274h5.82c2.546,0,3.092,1.819,3.092,3.274v2.546h1.455v-3.274c0-3.092,1.637-4.729,4.365-4.729h8c2.728,0,4.365,1.637,4.365,4.729v3.274H33.1v-2.546c0-1.273.364-3.274,3.092-3.274h5.82c2.728,0,3.092,2,3.092,3.274v2.546h1.455v-2.546C46.561-15.9,44.924-17.714,42.2-17.714Zm-34.739,0A2.486,2.486,0,0,1,4.911-20.26a2.486,2.486,0,0,1,2.546-2.546A2.486,2.486,0,0,1,10-20.26,2.486,2.486,0,0,1,7.457-17.714ZM23.281-19.9a3.648,3.648,0,0,1-3.638-3.638,3.648,3.648,0,0,1,3.638-3.638,3.648,3.648,0,0,1,3.638,3.638A3.648,3.648,0,0,1,23.281-19.9ZM39.1-17.714a2.486,2.486,0,0,1-2.546-2.546A2.486,2.486,0,0,1,39.1-22.807,2.486,2.486,0,0,1,41.65-20.26,2.486,2.486,0,0,1,39.1-17.714ZM28.373-14.077a.782.782,0,0,0-.728.728h0v2.91H29.1v-2.91h0A.782.782,0,0,0,28.373-14.077Zm-10.185,0a.782.782,0,0,0-.728.728h0v2.91h1.455v-2.91h0A.782.782,0,0,0,18.188-14.077ZM43.651-57H2.91A2.873,2.873,0,0,0,0-54.09v16.733a2.873,2.873,0,0,0,2.91,2.91H5.093l4,4,4-4h6.184l4,4,4-4h6.184l4,4,4-4h2.183a2.873,2.873,0,0,0,2.91-2.91V-54.09A2.873,2.873,0,0,0,43.651-57Zm1.455,19.643A1.565,1.565,0,0,1,43.651-35.9h-2.91l-3.274,3.274L34.193-35.9H26.554l-3.274,3.274L20.007-35.9H12.368L9.094-32.628,5.82-35.9H2.91a1.565,1.565,0,0,1-1.455-1.455V-54.09A1.565,1.565,0,0,1,2.91-55.545H43.651a1.565,1.565,0,0,1,1.455,1.455ZM23.281-40.995a.782.782,0,0,0-.728.728.782.782,0,0,0,.728.728.782.782,0,0,0,.728-.728A.782.782,0,0,0,23.281-40.995Zm7.275,0a.782.782,0,0,0-.728.728.782.782,0,0,0,.728.728.782.782,0,0,0,.728-.728A.782.782,0,0,0,30.556-40.995Zm-14.55,0a.782.782,0,0,0-.728.728.782.782,0,0,0,.728.728.782.782,0,0,0,.728-.728A.782.782,0,0,0,16.005-40.995Z" transform="translate(0 57)" fill="#1179d5" fill-rule="evenodd"/>
</svg>
