<svg xmlns="http://www.w3.org/2000/svg" width="57.887" height="50.943" viewBox="0 0 57.887 50.943">
  <g id="Groupe_858" data-name="Groupe 858" transform="translate(-0.057 50.943)">
    <path id="Tracé_493" data-name="Tracé 493" d="M57.773-34.835a.847.847,0,0,0-1.359,0l-4.3,4.326-.453-.683h0L38.289-44.625h0l-.68-.455,4.3-4.326a.856.856,0,0,0,0-1.366,1.42,1.42,0,0,0-1.359,0L35.8-45.763a.839.839,0,0,0-.227.683c0,.228,0,.455.227.455l.68.683-1.812,1.821c-2.266-.911-6.57-.683-8.156.911l-2.266,2.277-2.719-2.5.68-.683a.856.856,0,0,0,0-1.366l-4.984-4.781a.64.64,0,0,0-1.133,0,.647.647,0,0,0,0,1.138l4.3,4.326L5.891-28.232l-4.3-4.326a1.438,1.438,0,0,0-1.359,0,1.458,1.458,0,0,0,0,1.366l4.984,5.009a2.275,2.275,0,0,0,.68.228.79.79,0,0,0,.453-.228l.68-.683L10.875-23,9.742-21.629A3.564,3.564,0,0,0,8.383-18.9a4.016,4.016,0,0,0,1.359,2.96A3.743,3.743,0,0,0,12.461-14.8h0a.7.7,0,0,0,.453-.228.8.8,0,0,1-.227.455,4.016,4.016,0,0,0,1.359,2.96,3.743,3.743,0,0,0,2.719,1.138.7.7,0,0,0,.453-.228,3.855,3.855,0,0,0,.906,3.187A3.98,3.98,0,0,0,21.07-6.147a.79.79,0,0,1,.453-.228,3.855,3.855,0,0,0,.906,3.187,3.98,3.98,0,0,0,2.945,1.366,4.771,4.771,0,0,0,2.266-.911L29.453-.911A3.4,3.4,0,0,0,31.945,0a4.17,4.17,0,0,0,2.719-1.138A3.325,3.325,0,0,0,35.8-3.871a3.926,3.926,0,0,0,4.078-.911,4.34,4.34,0,0,0,1.133-2.96,1.691,1.691,0,0,0,1.133.228h0a4.737,4.737,0,0,0,2.492-.911,4.809,4.809,0,0,0,1.133-2.96v-.228h.227a4.3,4.3,0,0,0,2.945-1.138,4.809,4.809,0,0,0,1.133-2.96,4.211,4.211,0,0,0-1.133-2.732l-2.719-2.732.227-.228A5.854,5.854,0,0,0,47.8-26.183l3.172-3.187.68.683c0,.228.227.228.453.228a.83.83,0,0,0,.68-.228l4.984-4.781A1.439,1.439,0,0,0,57.773-34.835ZM12.461-16.621a2.052,2.052,0,0,1-1.586-.683A2.072,2.072,0,0,1,10.2-18.9a1.625,1.625,0,0,1,.68-1.366l2.039-2.049h0l.227-.228a1.955,1.955,0,0,1,1.359-.683,2.052,2.052,0,0,1,1.586.683,2.072,2.072,0,0,1,.68,1.594,1.625,1.625,0,0,1-.68,1.366L14.047-17.3h0A2.441,2.441,0,0,1,12.461-16.621Zm2.719,3.643a2.072,2.072,0,0,1-.68-1.594,1.625,1.625,0,0,1,.68-1.366l2.266-2.277A1.612,1.612,0,0,1,18.8-18.9a2.052,2.052,0,0,1,1.586.683,2.072,2.072,0,0,1,.68,1.594,1.625,1.625,0,0,1-.68,1.366l-2.266,2.277h0A2.367,2.367,0,0,1,15.18-12.978Zm4.3,4.326a1.947,1.947,0,0,1,0-2.96l2.266-2.277a1.612,1.612,0,0,1,1.359-.683,2.052,2.052,0,0,1,1.586.683,1.947,1.947,0,0,1,0,2.96L22.43-8.652h0A2.367,2.367,0,0,1,19.484-8.652Zm4.3,4.326a2.208,2.208,0,0,1,0-3.187l2.266-2.049a1.612,1.612,0,0,1,1.359-.683A2.052,2.052,0,0,1,29-9.562,1.947,1.947,0,0,1,29-6.6L26.961-4.554h0l-.227.228A2.367,2.367,0,0,1,23.789-4.326ZM48.258-15.71a2.072,2.072,0,0,1-.68,1.594,2.052,2.052,0,0,1-1.586.683h0a1.955,1.955,0,0,1-1.359-.683h0l-2.266-2.277a1.025,1.025,0,0,0-1.133,0,.856.856,0,0,0,0,1.366l2.039,2.277h0a1.625,1.625,0,0,1,.68,1.366,2.072,2.072,0,0,1-.68,1.594,2.385,2.385,0,0,1-1.133.455h0a3.452,3.452,0,0,1-2.266-.911h0l-1.133-1.138a.847.847,0,0,0-1.359,0,.647.647,0,0,0,0,1.138l1.133,1.138h0a2.208,2.208,0,0,1,0,3.187c-1.133.911-2.945,0-3.852-.911a1.025,1.025,0,0,0-1.133,0,.839.839,0,0,0-.227.683.839.839,0,0,0,.227.683,2.4,2.4,0,0,1,0,2.96,2.127,2.127,0,0,1-2.945.228L29-3.871l1.359-1.366a4.482,4.482,0,0,0,0-5.692,4.758,4.758,0,0,0-2.945-1.138h-.453a4.094,4.094,0,0,0-.906-3.187,4.758,4.758,0,0,0-2.945-1.138h-.227v-.228a4.809,4.809,0,0,0-1.133-2.96,4.046,4.046,0,0,0-3.172-.911v-.455a4.809,4.809,0,0,0-1.133-2.96,4.08,4.08,0,0,0-5.211-.228l-3.852-4.1L20.391-40.3l2.492,2.732-2.266,2.5c-.227,0-.227,0-.227.228a4.249,4.249,0,0,0,.453,5.692,4.439,4.439,0,0,0,5.664.683.79.79,0,0,1,.453-.228l4.531-4.781L44.18-20.719v.228h0l3.4,3.415A1.625,1.625,0,0,1,48.258-15.71ZM46.219-27.094c-.227.228-.453.683-.227.911a3.821,3.821,0,0,1-.906,3.415l-.227.228L32.172-35.518h-.227a.222.222,0,0,1-.227-.228h-.227c-.227,0-.227,0-.227.228h-.453l-4.984,5.237H25.6a2.533,2.533,0,0,1-3.625-.228,2.481,2.481,0,0,1,0-3.415h0l2.719-2.96h.227l2.945-3.187c1.133-.911,5.211-.911,6.57-.228.453.228.906.228,1.133-.228l2.039-2.049L49.617-30.509Z" fill="#1179d5" fill-rule="evenodd"/>
  </g>
</svg>
