<svg xmlns="http://www.w3.org/2000/svg" width="45.125" height="43.903" viewBox="0 0 45.125 43.903">
  <g id="Groupe_842" data-name="Groupe 842" transform="translate(0 36)">
    <path id="Tracé_487" data-name="Tracé 487" d="M42.273-16.058c-.031.677-.322,2.01-2.791,2.01h-2.82a.694.694,0,0,0-.7.685.7.7,0,0,0,.7.687H39.4a2.1,2.1,0,0,1,2.256,2.529c-.173,1.024-.669,2.96-3.05,2.96H35.252a.694.694,0,0,0-.7.685.7.7,0,0,0,.7.687h2.776c2.382,0,2.173,1.764,1.83,2.819-.449,1.384-.725,2.667-3.723,2.667h-2.3a.694.694,0,0,0-.7.687.7.7,0,0,0,.7.687h2.212A1.454,1.454,0,0,1,37.5,2.974a6.971,6.971,0,0,1-.393.988,2.559,2.559,0,0,1-2.565,1.2H26.833a40.683,40.683,0,0,1-7.813-.876c-5.86-1.313-6.167-1.415-6.535-1.516,0,0-1.193-.2-1.193-1.207l-.013-18.95A1.492,1.492,0,0,1,12.4-18.82c.088-.035.207-.067.29-.1,6.443-2.594,8.4-8.287,8.461-12.96a1.4,1.4,0,0,1,1.412-1.372c1.492,0,4.124,2.911,4.124,6.513,0,3.254-.132,3.817-1.306,7.208,14.1,0,14,.2,15.248.514a2.1,2.1,0,0,1,1.673,2.1c0,.472-.013.4-.029.864M9.869,3.789a1.388,1.388,0,0,1-1.41,1.37H4.228a1.391,1.391,0,0,1-1.41-1.37V-18.165a1.391,1.391,0,0,1,1.41-1.37h4.23a1.388,1.388,0,0,1,1.41,1.37Zm31.257-25.42c-1.763-.453-5.908-.447-11.971-.6a19.523,19.523,0,0,0,.351-4.51c0-4.921-3.683-9.257-6.944-9.257a4.205,4.205,0,0,0-4.233,4.084c-.029,2.762-.907,7.535-5.641,9.954-.347.179-1.339.655-1.483.718l.073.061a4.537,4.537,0,0,0-2.82-1.1H4.228A4.177,4.177,0,0,0,0-18.165V3.789A4.177,4.177,0,0,0,4.228,7.9h4.23a4.187,4.187,0,0,0,3.763-2.368.4.4,0,0,0,.067.016c.094.024.2.051.338.087a.348.348,0,0,1,.063.014c.815.2,2.377.561,5.72,1.307a43.006,43.006,0,0,0,8.423.943h7.709a5.355,5.355,0,0,0,5.052-2.644,9.861,9.861,0,0,0,.6-1.476,4.428,4.428,0,0,0,.033-2.415A6.12,6.12,0,0,0,42.547-2.17a5.237,5.237,0,0,0,0-3.74,6.394,6.394,0,0,0,1.884-3.8,5.019,5.019,0,0,0-.547-3.254,4.7,4.7,0,0,0,1.2-2.986l.017-.287c.01-.181.019-.291.019-.687a5.1,5.1,0,0,0-4-4.71" transform="translate(0)" fill="#1179d5" fill-rule="evenodd"/>
    <path id="Tracé_488" data-name="Tracé 488" d="M5.439-3.748a.815.815,0,0,1-.813-.813.815.815,0,0,1,.813-.813.815.815,0,0,1,.813.813.815.815,0,0,1-.813.813M5.439-7A2.44,2.44,0,0,0,3-4.561,2.44,2.44,0,0,0,5.439-2.122,2.44,2.44,0,0,0,7.878-4.561,2.44,2.44,0,0,0,5.439-7" transform="translate(0.659 6.368)" fill="#1179d5" fill-rule="evenodd"/>
  </g>
</svg>
